<svg xmlns="http://www.w3.org/2000/svg" xmlns:xlink="http://www.w3.org/1999/xlink" width="16" height="16" viewBox="0 0 16 16"><defs><path id="i3zea" d="M39 199h-2c-.6 0-1 .4-1 1v14c0 .6.4 1 1 1h2c.6 0 1-.4 1-1v-14c0-.6-.4-1-1-1z"/><path id="i3zeb" d="M33 209h-2c-.6 0-1 .4-1 1v4c0 .6.4 1 1 1h2c.6 0 1-.4 1-1v-4c0-.6-.4-1-1-1z"/><path id="i3zec" d="M45 204h-2c-.6 0-1 .4-1 1v9c0 .6.4 1 1 1h2c.6 0 1-.4 1-1v-9c0-.6-.4-1-1-1z"/></defs><g><g transform="translate(-30 -199)"><use fill="#e07319" xlink:href="#i3zea"/></g><g transform="translate(-30 -199)"><use fill="#e07319" xlink:href="#i3zeb"/></g><g transform="translate(-30 -199)"><use fill="#e07319" xlink:href="#i3zec"/></g></g></svg>