<svg xmlns="http://www.w3.org/2000/svg" xmlns:xlink="http://www.w3.org/1999/xlink" width="20" height="20" viewBox="0 0 20 20"><defs><path id="1l4ya" d="M1579.68 45.12l-1.867-1.867c.248-.913.248-1.593 0-2.507l1.867-1.866c.48.96.72 2.04.72 3.12s-.24 2.16-.72 3.12zm-6.48 4.08c-1.08 0-2.16-.24-3.12-.72l1.867-1.867c.914.248 1.593.248 2.507 0l1.866 1.867c-.96.48-2.04.72-3.12.72zM1566 42c0-1.08.24-2.16.72-3.12l1.867 1.867c-.248.913-.248 1.593 0 2.507l-1.867 1.866c-.48-.96-.72-2.04-.72-3.12zm7.2-7.2c1.08 0 2.16.24 3.12.72l-1.867 1.867c-.913-.248-1.592-.248-2.507 0l-1.866-1.867c.96-.48 2.04-.72 3.12-.72zm0 9.6c-1.32 0-2.4-1.08-2.4-2.4 0-1.32 1.08-2.4 2.4-2.4 1.32 0 2.4 1.08 2.4 2.4 0 1.32-1.08 2.4-2.4 2.4zm0-12c-5.28 0-9.6 4.32-9.6 9.6 0 5.28 4.32 9.6 9.6 9.6 5.28 0 9.6-4.32 9.6-9.6 0-5.28-4.32-9.6-9.6-9.6z"/></defs><g><g transform="translate(-1563 -32)"><use fill="#bcbccb" xlink:href="#1l4ya"/></g></g></svg>