<svg xmlns="http://www.w3.org/2000/svg" xmlns:xlink="http://www.w3.org/1999/xlink" width="25" height="28" viewBox="0 0 25 28"><defs><path id="ztdka" d="M1685 38V24h14v14zm7-2a4.8 4.8 0 1 0 0-9.6 4.8 4.8 0 0 0 0 9.6z"/><path id="ztdkb" d="M1686 49.2h-4.8c0 1.32 1.08 2.4 2.4 2.4 1.32 0 2.4-1.08 2.4-2.4z"/><path id="ztdkc" d="M1692 45.6h-.6c-.84-.84-1.8-2.04-1.8-3.6v-3.6c0-3.36-2.64-6-6-6s-6 2.64-6 6V42c0 1.56-.96 2.76-1.8 3.6h-.6c-.72 0-1.2.48-1.2 1.2s.48 1.2 1.2 1.2h16.8c.72 0 1.2-.48 1.2-1.2s-.48-1.2-1.2-1.2z"/><path id="ztdkd" d="M1687.2 31.2a4.8 4.8 0 1 1 9.6 0 4.8 4.8 0 0 1-9.6 0z"/><clipPath id="ztdke"><use fill="#fff" xlink:href="#ztdka"/></clipPath></defs><g><g transform="translate(-1674 -24)"><use fill="#bcbccb" xlink:href="#ztdkb"/></g><g transform="translate(-1674 -24)"><use fill="#bcbccb" xlink:href="#ztdkc"/></g><g transform="translate(-1674 -24)"><use fill="#e07319" xlink:href="#ztdkd"/><use fill="#fff" fill-opacity="0" stroke="#fff" stroke-miterlimit="50" stroke-width="4" clip-path="url(&quot;#ztdke&quot;)" xlink:href="#ztdkd"/></g></g></svg>