<svg xmlns="http://www.w3.org/2000/svg" xmlns:xlink="http://www.w3.org/1999/xlink" width="16" height="16" viewBox="0 0 16 16"><defs><path id="tlwja" d="M38 594c-1.7 0-3-1.3-3-3s1.3-3 3-3 3 1.3 3 3-1.3 3-3 3zm5.3-5.8l1.1-2.1-1.4-1.4-2.1 1.1c-.3-.2-.7-.3-1.1-.4L39 583h-2l-.8 2.3c-.3.1-.7.2-1 .4l-2.1-1.1-1.5 1.5 1.1 2.1c-.2.3-.3.7-.4 1l-2.3.8v2l2.3.8c.1.4.3.7.4 1.1l-1.1 2.1 1.4 1.4 2.1-1.1c.3.2.7.3 1.1.4l.8 2.3h2l.8-2.3c.4-.1.7-.3 1.1-.4l2.1 1.1 1.4-1.4-1.1-2.1c.2-.3.3-.7.4-1.1l2.3-.8v-2l-2.3-.8c-.1-.3-.2-.7-.4-1z"/></defs><g><g transform="translate(-30 -583)"><use fill="#a5a4bf" xlink:href="#tlwja"/></g></g></svg>