<svg width="85" height="85" viewBox="0 0 85 85" fill="none" xmlns="http://www.w3.org/2000/svg">
<path d="M42.4999 77.9167C62.06 77.9167 77.9166 62.0601 77.9166 42.5C77.9166 22.94 62.06 7.08337 42.4999 7.08337C22.9398 7.08337 7.08325 22.94 7.08325 42.5C7.08325 62.0601 22.9398 77.9167 42.4999 77.9167Z" stroke="#FFDE32" stroke-width="3" stroke-linecap="round" stroke-linejoin="round"/>
<path d="M42.5 63.75C54.2361 63.75 63.75 54.2361 63.75 42.5C63.75 30.7639 54.2361 21.25 42.5 21.25C30.7639 21.25 21.25 30.7639 21.25 42.5C21.25 54.2361 30.7639 63.75 42.5 63.75Z" stroke="#FFDE32" stroke-width="3" stroke-linecap="round" stroke-linejoin="round"/>
<path d="M42.5001 49.5833C46.4121 49.5833 49.5834 46.412 49.5834 42.5C49.5834 38.5879 46.4121 35.4166 42.5001 35.4166C38.5881 35.4166 35.4167 38.5879 35.4167 42.5C35.4167 46.412 38.5881 49.5833 42.5001 49.5833Z" stroke="#FFDE32" stroke-width="3" stroke-linecap="round" stroke-linejoin="round"/>
</svg>
