<svg width="600" height="507" viewBox="0 0 600 507" fill="none" xmlns="http://www.w3.org/2000/svg">
<g clip-path="url(#clip0)">
<path d="M321.551 468.836C170.875 457.395 -8.81264 340.908 0.335551 220.967C9.48374 101.025 183.514 -10.6312 334.19 0.809385C484.865 12.25 571.6 236.401 562.451 356.343C553.303 476.285 472.227 480.276 321.551 468.836Z" fill="#F2F2F2"/>
<path d="M286.712 44.0392H0.77417V339.256H286.712V44.0392Z" fill="#3F3D56"/>
<path d="M196.233 163.303C202.455 174.768 204.734 187.955 202.719 200.837C200.704 213.72 194.507 225.586 185.079 234.615C175.652 243.644 163.515 249.336 150.532 250.817C137.548 252.299 124.437 249.487 113.21 242.815C101.982 236.143 93.2604 225.979 88.3826 213.883C83.5048 201.787 82.7408 188.428 86.208 175.856C89.6752 163.285 97.1818 152.197 107.575 144.294C117.969 136.391 130.675 132.11 143.743 132.108C144.216 132.108 144.688 132.115 145.159 132.126L144.528 106.69C144.266 106.687 144.005 106.68 143.743 106.68C124.941 106.685 106.67 112.901 91.7803 124.356C76.8909 135.812 66.221 151.863 61.4358 170.004C56.6505 188.146 58.0191 207.358 65.3279 224.643C72.6367 241.927 85.4745 256.311 101.838 265.55C118.202 274.79 137.17 278.364 155.784 275.716C174.398 273.068 191.609 264.347 204.733 250.913C217.857 237.479 226.154 220.089 228.33 201.455C230.507 182.822 226.439 163.993 216.763 147.909L196.233 163.303Z" fill="#00ADB5"/>
<path opacity="0.3" d="M196.233 163.303L216.763 147.909C209.266 135.443 198.687 125.107 186.039 117.89C173.391 110.673 159.098 106.816 144.528 106.69L145.159 132.126C155.67 132.372 165.93 135.385 174.899 140.859C183.868 146.334 191.228 154.077 196.233 163.303Z" fill="#00ADB5"/>
<path d="M186.565 265.103L216.471 295.222" stroke="#2F2E41" stroke-width="2" stroke-miterlimit="10"/>
<path d="M206.938 80.5735L186.153 117.552" stroke="#2F2E41" stroke-width="2" stroke-miterlimit="10"/>
<path d="M241.335 295.222H192.228V306.385H241.335V295.222Z" fill="#F2F2F2"/>
<path d="M230.146 69.4676H181.039V80.6313H230.146V69.4676Z" fill="#F2F2F2"/>
<path d="M600 41.5584H314.062V160.638H600V41.5584Z" fill="#3F3D56"/>
<path d="M429.576 133.349H397.252C395.046 120.626 395.046 107.619 397.252 94.8959H429.576C425.934 107.456 425.934 120.789 429.576 133.349Z" fill="#FF6584"/>
<path d="M519.914 133.349H487.59C485.384 120.626 485.384 107.619 487.59 94.8959H519.914C516.272 107.456 516.272 120.789 519.914 133.349Z" fill="#FF6584"/>
<path d="M383.682 107.3H351.358C349.153 94.5769 349.153 81.5704 351.358 68.8474H383.682C380.04 81.4074 380.04 94.7399 383.682 107.3Z" fill="#00ADB5"/>
<path d="M441.491 107.3H473.815C476.02 94.5769 476.02 81.5704 473.815 68.8474H441.491C445.133 81.4074 445.133 94.7399 441.491 107.3Z" fill="#00ADB5"/>
<path d="M530.38 107.3H562.704C564.91 94.5769 564.91 81.5704 562.704 68.8474H530.38C534.022 81.4074 534.022 94.7399 530.38 107.3Z" fill="#00ADB5"/>
<path d="M545.299 470.119C545.299 482.487 487.38 506.845 416.316 506.845C345.253 506.845 287.955 482.487 287.955 470.119C287.955 457.751 345.253 462.056 416.316 462.056C487.38 462.056 545.299 457.751 545.299 470.119Z" fill="#3F3D56"/>
<path opacity="0.1" d="M545.299 470.119C545.299 482.487 487.38 506.845 416.316 506.845C345.253 506.845 287.955 482.487 287.955 470.119C287.955 457.751 345.253 462.056 416.316 462.056C487.38 462.056 545.299 457.751 545.299 470.119Z" fill="black"/>
<path d="M416.316 492.58C487.38 492.58 544.988 482.554 544.988 470.186C544.988 457.818 487.38 447.792 416.316 447.792C345.253 447.792 287.644 457.818 287.644 470.186C287.644 482.554 345.253 492.58 416.316 492.58Z" fill="#3F3D56"/>
<path opacity="0.1" d="M416.316 487.712C471.931 487.712 517.016 479.865 517.016 470.186C517.016 460.507 471.931 452.66 416.316 452.66C360.701 452.66 315.616 460.507 315.616 470.186C315.616 479.865 360.701 487.712 416.316 487.712Z" fill="black"/>
<path d="M371.872 337.396H339.548C337.342 324.673 337.342 311.666 339.548 298.943H371.872C368.23 311.503 368.23 324.836 371.872 337.396Z" fill="#00ADB5"/>
<path d="M474.136 142.681L478.581 144.899C478.581 144.899 502.658 205.14 494.508 219.554C486.359 233.968 460.801 260.947 460.801 260.947L455.985 247.272L475.679 204.672L474.136 142.681Z" fill="#575A89"/>
<path opacity="0.1" d="M474.136 142.681L478.581 144.899C478.581 144.899 502.658 205.14 494.508 219.554C486.359 233.968 460.801 260.947 460.801 260.947L455.985 247.272L475.679 204.672L474.136 142.681Z" fill="black"/>
<path d="M469.32 443.889C469.32 443.889 475.617 458.303 472.283 459.412C468.95 460.52 464.875 460.52 460.801 460.52C456.726 460.52 451.911 459.042 451.17 457.564C450.429 456.085 454.133 446.476 454.133 446.476L469.32 443.889Z" fill="#F2F2F2"/>
<path d="M384.495 451.281C384.495 451.281 388.57 464.216 386.718 464.955C384.865 465.695 378.939 469.021 375.605 467.912C372.271 466.803 367.086 464.216 365.974 463.107C364.863 461.999 365.974 456.085 365.974 456.085L371.16 448.694L384.495 451.281Z" fill="#F2F2F2"/>
<path d="M457.467 259.099L462.777 260.947C462.777 260.947 464.134 273.513 462.653 277.948C461.171 282.383 457.837 314.536 459.689 321.189C461.542 327.841 460.43 338.559 460.43 338.559C460.43 338.559 471.543 374.778 469.32 382.539C467.098 390.3 467.468 401.387 469.691 406.931C471.913 412.475 473.765 414.692 472.654 419.127C471.543 423.562 469.32 425.78 471.543 429.476C473.765 433.171 478.21 434.28 475.988 437.606C473.765 440.933 471.543 443.52 472.284 445.737C473.024 447.955 452.652 452.02 450.799 448.694C450.799 448.694 456.726 443.52 450.799 440.563C444.873 437.606 446.725 426.519 446.725 426.519C446.725 426.519 436.353 384.017 436.724 380.691C437.094 377.365 420.425 325.623 420.425 325.623C420.425 325.623 395.978 399.54 394.496 402.866C393.015 406.192 396.348 414.323 394.496 416.54C392.644 418.758 395.237 424.302 392.644 426.519C390.051 428.736 397.089 436.867 392.644 439.824C388.199 442.781 385.977 452.02 386.347 453.868C386.718 455.716 367.826 453.498 367.826 450.911C367.826 448.324 368.197 446.107 366.345 441.672C364.493 437.237 363.381 434.28 364.863 432.802C366.345 431.324 367.456 429.476 365.974 424.301C364.493 419.127 368.197 403.235 367.086 400.279C365.974 397.322 366.345 377.365 366.345 377.365C366.345 377.365 370.049 348.168 368.938 343.363C367.826 338.559 368.938 337.45 369.308 335.602C369.679 333.754 371.901 313.797 373.383 310.84C374.864 307.884 376.716 257.251 385.236 254.664C393.756 252.077 457.467 259.099 457.467 259.099Z" fill="#2F2E41"/>
<path d="M460.43 457.194C460.43 457.194 473.765 454.977 474.506 457.194C475.247 459.412 477.469 476.782 472.284 477.151C467.098 477.521 458.208 478.63 456.726 475.304C455.244 471.977 448.207 469.76 448.207 469.76C448.207 469.76 437.835 466.803 437.835 463.477C437.835 460.151 438.205 454.977 440.057 454.607C441.91 454.237 449.318 450.172 449.318 448.694C449.318 447.215 460.43 457.194 460.43 457.194Z" fill="#2F2E41"/>
<path d="M377.087 463.107C377.087 463.107 386.718 460.151 388.94 461.999C391.163 463.847 394.126 484.173 388.94 483.804C383.754 483.434 370.049 485.652 369.308 482.695C368.567 479.739 358.566 478.999 358.566 478.999C358.566 478.999 347.824 473.825 348.565 468.282C349.306 462.738 350.417 460.89 354.862 460.52C359.307 460.151 362.641 454.977 363.011 454.607C363.382 454.238 366.647 451.536 367.052 454.55C367.456 457.564 372.272 464.216 377.087 463.107Z" fill="#2F2E41"/>
<path d="M407.461 104.984C419.94 104.984 430.056 94.8904 430.056 82.4394C430.056 69.9885 419.94 59.895 407.461 59.895C394.982 59.895 384.866 69.9885 384.866 82.4394C384.866 94.8904 394.982 104.984 407.461 104.984Z" fill="#FFB9B9"/>
<path d="M427.093 87.6136C427.093 87.6136 428.575 112.375 434.131 114.593C439.687 116.81 405.979 116.81 405.979 116.81C405.979 116.81 405.609 101.288 400.793 97.5923C395.978 93.8965 427.093 87.6136 427.093 87.6136Z" fill="#FFB9B9"/>
<path d="M435.983 109.049C435.983 109.049 413.017 100.549 404.868 113.854C404.868 113.854 378.939 126.05 377.087 133.442C375.235 140.833 392.644 196.27 392.644 196.27C392.644 196.27 392.644 242.098 388.94 246.903C385.236 251.707 378.198 256.882 383.014 257.99C387.829 259.099 463.394 267.23 463.023 262.425C462.653 257.621 457.837 253.555 463.023 250.599C468.209 247.642 463.764 244.316 467.098 234.707C470.432 225.098 478.581 145.638 478.581 145.638C478.581 145.638 473.024 135.659 471.913 134.55C470.802 133.442 435.983 109.049 435.983 109.049Z" fill="#575A89"/>
<path d="M369.678 270.926C369.678 270.926 355.232 303.449 367.826 307.884C380.42 312.319 379.68 273.513 379.68 273.513L369.678 270.926Z" fill="#FFB9B9"/>
<path d="M418.299 86.6322C416.989 84.0138 415.029 80.9931 412.1 81.1525C410.619 81.2332 409.342 82.1525 408.022 82.8274C406.703 83.5023 405.011 83.9207 403.805 83.0606C402.039 81.8025 402.587 78.8185 401.008 77.3343C399.284 75.714 395.817 76.6187 394.705 74.5326C394.111 73.4187 394.591 72.0368 394.332 70.8019C392.528 70.8356 390.666 70.8593 388.993 70.183C387.321 69.5067 385.873 67.9396 385.92 66.1398C385.97 65.5266 386.142 64.9295 386.426 64.3836C386.71 63.8376 387.101 63.3537 387.575 62.9602C389.852 60.8944 393.146 60.4983 395.956 59.2454C398.192 58.2484 400.136 56.6945 402.334 55.616C406.116 53.7598 410.48 53.3998 414.683 53.7203C421.056 54.2061 427.5 56.3163 432.122 60.7216C436.743 65.1268 439.189 72.0767 437.196 78.1357C436.066 81.5691 433.673 84.4549 432.337 87.8138C431.519 90.1123 430.951 92.4923 430.645 94.9125L429.707 100.653C429.853 99.7594 427.887 97.5187 427.242 96.9855C425.836 95.8225 423.79 96.2171 422.484 95.1399C420.553 93.5465 419.436 88.9039 418.299 86.6322Z" fill="#2F2E41"/>
<path opacity="0.1" d="M385.606 130.855L379.68 134.55C379.68 134.55 370.049 192.574 371.16 200.705C372.271 208.836 366.715 254.664 368.567 258.36C370.419 262.056 371.16 262.795 371.16 265.012C371.16 267.23 365.974 275.36 369.308 276.839C372.642 278.317 384.866 280.904 384.866 276.839C384.866 272.773 382.643 267.23 386.718 264.643C390.792 262.056 393.756 245.424 393.756 245.424C393.756 245.424 395.608 228.424 397.46 225.098C399.312 221.771 401.905 209.575 401.905 204.401C401.905 199.227 406.35 178.161 403.757 167.443C401.164 156.725 400.423 127.898 385.606 130.855Z" fill="black"/>
<path d="M383.014 129.746L377.087 133.442C377.087 133.442 367.456 191.466 368.567 199.596C369.679 207.727 364.122 253.555 365.975 257.251C367.827 260.947 368.567 261.686 368.567 263.904C368.567 266.121 363.382 274.252 366.715 275.73C370.049 277.208 382.273 279.795 382.273 275.73C382.273 271.665 380.05 266.121 384.125 263.534C388.199 260.947 391.163 244.316 391.163 244.316C391.163 244.316 393.015 227.315 394.867 223.989C396.719 220.663 399.312 208.466 399.312 203.292C399.312 198.118 403.757 177.052 401.164 166.334C398.571 155.616 397.83 126.789 383.014 129.746Z" fill="#575A89"/>
</g>
<defs>
<clipPath id="clip0">
<rect width="600" height="506.845" fill="white"/>
</clipPath>
</defs>
</svg>
