<svg width="114" height="42" viewBox="0 0 114 42" fill="none" xmlns="http://www.w3.org/2000/svg">
<path d="M21.57 14.33C21.57 16.35 21.03 18.06 19.95 19.46C18.87 20.84 17.36 21.8 15.42 22.34L19.17 29H15.03L11.58 22.85H11.55H6.36L5.16 29H1.23L5.43 8H13.59C16.13 8 18.09 8.56 19.47 9.68C20.87 10.78 21.57 12.33 21.57 14.33ZM11.67 19.64C13.57 19.64 15.04 19.22 16.08 18.38C17.12 17.52 17.64 16.29 17.64 14.69C17.64 13.57 17.25 12.73 16.47 12.17C15.71 11.59 14.61 11.3 13.17 11.3H8.7L7.02 19.64H11.67ZM39.2004 29H35.3904L34.5204 25.28H26.3004L23.9304 29H19.8804L31.1604 11.84H34.8804L39.2004 29ZM33.9504 22.37L32.3604 15.29L27.9504 22.37H33.9504ZM60.9141 11.84L57.4941 29H54.3741L47.6541 17.96L45.4341 29H41.6841L45.1041 11.84H48.2541L54.9441 22.88L57.1641 11.84H60.9141ZM73.0992 19.67L79.1592 29H74.8692L70.3092 22.01L67.3992 24.53L66.4992 29H62.7492L66.1392 11.84H69.9192L68.3292 19.79L77.5092 11.84H82.1592L73.0992 19.67Z" fill="#00ADB5"/>
<path fill-rule="evenodd" clip-rule="evenodd" d="M92.5137 38.3751C101.169 39.9635 109.317 34.1997 110.711 25.5019C112.106 16.8037 106.22 8.46455 97.5645 6.87613C88.9094 5.28773 80.7619 11.0514 79.3672 19.7497C77.9727 28.4474 83.8586 36.7867 92.5137 38.3751Z" fill="#00ADB5"/>
<path fill-rule="evenodd" clip-rule="evenodd" d="M94.7428 22.2246C94.2124 25.5326 91.4749 27.7909 88.6285 27.2685C85.782 26.7461 83.9044 23.6409 84.4348 20.3329L85.2607 15.1756L87.6384 15.612L86.8115 20.7691C86.5256 22.5517 87.5375 24.2249 89.0712 24.5064C90.605 24.7879 92.0802 23.5709 92.366 21.7884L94.2768 9.87227L97.1048 7.49969L94.7428 22.2246ZM96.8904 27.837C97.5957 28.5848 98.4569 29.1014 99.4815 29.2894C102.321 29.8104 105.051 27.5581 105.58 24.2585C106.109 20.9592 104.237 17.8622 101.397 17.3411C98.5582 16.8201 95.8279 19.0724 95.2988 22.3717L92.8884 37.4042L95.7366 34.9449L96.8904 27.837Z" fill="white"/>
<path fill-rule="evenodd" clip-rule="evenodd" d="M99.8966 26.4811C101.422 26.761 102.888 25.5511 103.172 23.7788C103.456 22.0069 102.451 20.3433 100.926 20.0635C99.4009 19.7837 97.9342 20.9935 97.6501 22.7654C97.3657 24.5378 98.3718 26.2013 99.8966 26.4811Z" fill="#00ADB5"/>
</svg>
