<svg width="274" height="223" viewBox="0 0 274 223" fill="none" xmlns="http://www.w3.org/2000/svg">
<g clip-path="url(#clip0)">
<path d="M270.503 121.131L120.746 163.555L257.38 86.6413C251.151 75.2402 243.331 64.7818 234.155 55.5797L101.589 128.468L212.57 37.9336C196.652 27.4141 178.696 20.3617 159.869 17.2356L98.3962 119.769L139.111 15.3953C138.504 15.3874 137.898 15.3784 137.29 15.3784C61.7876 15.3784 0.580524 76.5263 0.580524 151.956C0.540907 176.905 7.37432 201.383 20.3323 222.71H254.248C272.667 192.245 278.497 155.815 270.503 121.131Z" fill="#F2F2F2"/>
<path d="M236.267 114.84H38.3136V222.71H236.267V114.84Z" fill="#393E46"/>
<path d="M197.083 127.308H73.1441V127.888H197.083V127.308Z" fill="#2F2E41"/>
<path d="M106.461 156.198H61.2437V161.331H106.461V156.198Z" fill="#00ADB5"/>
<path d="M137.29 164.925H61.2437V168.005H137.29V164.925Z" fill="#F2F2F2"/>
<path d="M133.18 171.598H61.2437V174.678H133.18V171.598Z" fill="#F2F2F2"/>
<path d="M113.654 178.271H61.2437V181.352H113.654V178.271Z" fill="#F2F2F2"/>
<path d="M245.555 212.83C245.555 203.503 240.818 195.941 234.973 195.941C231.3 195.941 228.065 198.93 226.168 203.465C225.527 203.199 224.84 203.061 224.146 203.059C222.377 203.059 220.741 203.965 219.408 205.498C217.697 199.843 214.071 195.941 209.873 195.941C205.948 195.941 202.525 199.354 200.698 204.42C199.683 203.564 198.404 203.084 197.076 203.059C192.591 203.059 188.956 208.862 188.956 216.021C188.937 218.407 189.371 220.775 190.235 223H243.421C244.76 220.171 245.555 216.649 245.555 212.83Z" fill="#00ADB5"/>
<path d="M58.2843 37.8961C65.8201 37.8961 71.9291 31.793 71.9291 24.2645C71.9291 16.7359 65.8201 10.6329 58.2843 10.6329C50.7485 10.6329 44.6396 16.7359 44.6396 24.2645C44.6396 31.793 50.7485 37.8961 58.2843 37.8961Z" fill="#00ADB5"/>
<path d="M49.6517 50.1065C50.1729 49.883 50.7534 49.8378 51.3029 49.9779C51.8524 50.1179 52.3403 50.4353 52.6907 50.8809C53.9026 52.3923 55.5563 55.7088 54.9214 62.2146L52.4627 87.4114L52.0713 112.81C52.0713 112.81 48.3729 124.519 42.9576 124.409C37.5423 124.298 47.4426 113.193 47.4426 113.193C47.4426 113.193 46.0697 93.0436 46.634 87.2607C47.16 81.8697 41.9527 53.4519 49.6517 50.1065Z" fill="#FFB8B8"/>
<path d="M56.3285 38.5783L59.4328 46.9834L54.9951 48.3529L54.372 60.5502L65.3746 54.6295L70.9162 48.5292L71.6077 43.8479C71.6077 43.8479 67.3344 43.1075 65.7806 33.68L56.3285 38.5783Z" fill="#FFB8B8"/>
<path d="M35.4963 108.801C35.4963 108.801 16.0837 128.273 21.0859 138.54C26.0882 148.807 50.5007 184.748 50.5007 184.748L57.0315 176.438C57.0315 176.438 50.6121 171.776 47.6225 160.849C44.6328 149.922 37.8661 142.375 35.8689 139.689C33.8718 137.003 54.621 118.206 52.7882 113.41C50.9553 108.615 35.4963 108.801 35.4963 108.801Z" fill="#FFB8B8"/>
<path opacity="0.1" d="M35.4963 108.801C35.4963 108.801 16.0837 128.273 21.0859 138.54C26.0882 148.807 50.5007 184.748 50.5007 184.748L57.0315 176.438C57.0315 176.438 50.6121 171.776 47.6225 160.849C44.6328 149.922 37.8661 142.375 35.8689 139.689C33.8718 137.003 54.621 118.206 52.7882 113.41C50.9553 108.615 35.4963 108.801 35.4963 108.801Z" fill="black"/>
<path d="M47.6941 178.815C47.6941 178.815 45.6661 182.821 46.277 184.419C46.888 186.018 50.0916 195.247 50.0916 195.247C50.0916 195.247 46.6806 208.616 49.1552 208.318C51.6299 208.021 60.5858 199.002 60.1888 195.706L59.0474 186.228L61.8199 188.403L65.3488 182.963L60.4304 176.866C60.4304 176.866 55.1491 171.231 53.4993 171.429C51.8495 171.627 47.6941 178.815 47.6941 178.815Z" fill="#2F2E41"/>
<path d="M51.5508 113.559L50.2484 116.642L44.7785 140.708C44.7785 140.708 42.6015 143.478 43.2808 152.592C43.9601 161.707 32.3067 196.967 32.3067 196.967L31.913 204.121L38.9246 203.278L43.7063 194.343C43.7063 194.343 45.5017 184.931 50.7456 176.358C55.9894 167.785 55.9829 146.885 55.9829 146.885L70.0955 114.674L58.9903 109.321L51.5508 113.559Z" fill="#FFB8B8"/>
<path d="M34.6976 192.499C34.6976 192.499 32.5857 192.335 32.2725 193.209C31.9593 194.083 25.6457 211.144 25.6457 211.144C25.6457 211.144 13.6384 222.62 19.5119 222.75C25.3854 222.88 35.2345 221.278 36.8997 217.734C38.565 214.189 40.4938 209.359 40.4938 209.359L41.0893 214.304L45.7409 211.237C45.7409 211.237 48.3425 194.621 45.3065 193.732C42.2705 192.843 34.6976 192.499 34.6976 192.499Z" fill="#2F2E41"/>
<path d="M41.779 98.4311C41.779 98.4311 36.8638 102.784 37.3259 103.147C37.7879 103.509 34.538 104.318 35.1489 105.916C35.7599 107.515 32.3952 110.845 34.045 110.647C35.6948 110.449 42.0955 108.007 49.1754 114.681L50.4127 114.532L50.2484 116.642C50.2484 116.642 55.3776 110.591 68.6287 119.867C68.6287 119.867 73.0168 118.085 72.4058 116.486C71.7949 114.888 79.5321 113.122 75.3548 102.756C71.1774 92.3893 58.2427 92.6901 58.2427 92.6901L41.779 98.4311Z" fill="#2F2E41"/>
<path d="M68.4074 45.0687C68.4074 45.0687 70.5347 41.8869 71.8217 42.1502C73.1086 42.4135 80.1452 42.2546 81.2678 44.6278C82.3905 47.0009 77.0444 71.6194 77.9035 75.2783C78.7626 78.9372 83.3247 106.396 79.3988 108.54C75.4728 110.684 70.883 100.367 70.883 100.367C70.883 100.367 58.5405 95.1623 48.065 98.5116C37.5895 101.861 40.8053 97.2941 40.8053 97.2941C40.8053 97.2941 48.3099 90.1219 47.1685 80.6447C46.0271 71.1676 45.5154 70.3931 47.4443 65.5631C47.4443 65.5631 47.7884 57.9975 47.5402 55.9372C47.2921 53.877 45.757 51.5534 46.8951 50.5806C48.0332 49.6077 59.8453 46.9339 59.8453 46.9339C59.8453 46.9339 53.8571 49.3257 56.5799 51.0885C59.3027 52.8513 68.4074 45.0687 68.4074 45.0687Z" fill="#3F3D56"/>
<path d="M57.9099 40.8245C63.4162 40.8245 67.88 36.365 67.88 30.864C67.88 25.363 63.4162 20.9035 57.9099 20.9035C52.4036 20.9035 47.9398 25.363 47.9398 30.864C47.9398 36.365 52.4036 40.8245 57.9099 40.8245Z" fill="#FFB8B8"/>
<path d="M78.8667 43.4744C78.3406 43.2627 77.7592 43.2306 77.213 43.383C76.6668 43.5354 76.1862 43.8638 75.846 44.3171C74.6685 45.8554 73.0902 49.2084 73.8717 55.6982L76.8988 80.8332L77.8637 106.216C77.8637 106.216 77.2405 118.413 82.652 118.181C88.0634 117.948 82.4998 106.495 82.4998 106.495C82.4998 106.495 83.4174 86.3199 82.7227 80.5512C82.075 75.1734 86.6393 46.6454 78.8667 43.4744Z" fill="#FFB8B8"/>
<path d="M65.4065 0C64.3754 1.47116 62.8471 2.52077 61.1029 2.95566C58.0935 3.76074 61.0783 8.27869 61.0783 8.27869C61.0783 8.27869 59.9929 6.6358 61.5585 4.89593C63.124 3.15607 65.6434 1.96656 65.4065 0Z" fill="#00ADB5"/>
<path d="M60.545 13.1614C62.6452 13.1614 64.3477 11.4606 64.3477 9.36245C64.3477 7.26433 62.6452 5.56348 60.545 5.56348C58.4449 5.56348 56.7424 7.26433 56.7424 9.36245C56.7424 11.4606 58.4449 13.1614 60.545 13.1614Z" fill="#00ADB5"/>
<path d="M65.4 12.5466C62.3 11.3752 57.1383 10.7813 54.4827 11.1873L54.8469 8.53046C57.3999 9.84866 62.5379 10.4681 65.7642 9.88979L65.4 12.5466Z" fill="#3F3D56"/>
<path d="M59.4015 13.4977C59.4015 13.4977 55.5164 19.9537 46.4822 22.3705C37.448 24.7873 46.4084 38.3501 46.4084 38.3501C46.4084 38.3501 43.1501 33.4182 47.8497 28.1952C52.5494 22.9721 60.1125 19.4012 59.4015 13.4977Z" fill="#00ADB5"/>
<path d="M59.7099 13.1053C59.7099 13.1053 63.4422 21.973 67.5397 22.8114C71.6372 23.6497 71.3264 37.6615 64.9185 39.7626C64.9185 39.7626 69.591 31.5483 65.5971 26.0394C61.6032 20.5304 59.0805 16.1755 59.7099 13.1053Z" fill="#00ADB5"/>
<path d="M270.227 222.42H0V223H270.227V222.42Z" fill="#2F2E41"/>
<path d="M230.172 118.319H217.11V123.249H230.172V118.319Z" fill="#00ADB5"/>
<path opacity="0.4" d="M203.467 182.511C212.605 182.511 220.013 175.11 220.013 165.981C220.013 156.852 212.605 149.451 203.467 149.451C194.329 149.451 186.921 156.852 186.921 165.981C186.921 175.11 194.329 182.511 203.467 182.511Z" fill="#00ADB5"/>
<path opacity="0.4" d="M172.844 185.472C179.255 185.472 184.451 180.28 184.451 173.876C184.451 167.472 179.255 162.28 172.844 162.28C166.434 162.28 161.237 167.472 161.237 173.876C161.237 180.28 166.434 185.472 172.844 185.472Z" fill="#00ADB5"/>
</g>
<defs>
<clipPath id="clip0">
<rect width="274" height="223" fill="white"/>
</clipPath>
</defs>
</svg>
