<svg width="462" height="406" viewBox="0 0 462 406" fill="none" xmlns="http://www.w3.org/2000/svg">
<g clip-path="url(#clip0)">
<path d="M54.6951 365.036C84.9024 365.036 109.39 362.497 109.39 359.365C109.39 356.233 84.9024 353.693 54.6951 353.693C24.4878 353.693 0 356.233 0 359.365C0 362.497 24.4878 365.036 54.6951 365.036Z" fill="#E6E6E6"/>
<path d="M87.8768 276.7H21.5134V359.391H87.8768V276.7Z" fill="#E6E6E6"/>
<path d="M78.5045 305.579H31.1021V307.774H78.5045V305.579Z" fill="white"/>
<path d="M78.5045 313.263H31.1021V315.458H78.5045V313.263Z" fill="white"/>
<path d="M78.5045 320.946H31.1021V323.142H78.5045V320.946Z" fill="white"/>
<path d="M78.5045 328.63H31.1021V330.825H78.5045V328.63Z" fill="white"/>
<path d="M67.7163 242.347C67.7134 245.485 66.5821 248.516 64.5303 250.884C62.4786 253.252 59.6442 254.797 56.548 255.236C53.4519 255.675 50.3018 254.978 47.6767 253.273C45.0517 251.568 43.1279 248.97 42.2588 245.956C41.3898 242.942 41.634 239.714 42.9464 236.866C44.2588 234.018 46.5513 231.741 49.4028 230.453C52.2542 229.166 55.473 228.954 58.4677 229.856C61.4624 230.759 64.0319 232.716 65.704 235.367C67.019 237.456 67.7167 239.876 67.7163 242.347Z" fill="#E6E6E6"/>
<path d="M65.7039 235.368L52.8864 248.227C52.0809 246.975 47.5928 241.159 47.5928 241.159C48.168 240.576 48.7817 240.032 49.4299 239.532L53.1516 244.511L64.203 233.422C64.7634 234.021 65.266 234.673 65.7039 235.368Z" fill="white"/>
<path d="M231.678 361.709C261.885 361.709 286.373 359.17 286.373 356.038C286.373 352.906 261.885 350.366 231.678 350.366C201.47 350.366 176.983 352.906 176.983 356.038C176.983 359.17 201.47 361.709 231.678 361.709Z" fill="#E6E6E6"/>
<path d="M264.859 273.373H198.496V356.064H264.859V273.373Z" fill="#E6E6E6"/>
<path d="M255.487 319.405H208.085V321.6H255.487V319.405Z" fill="white"/>
<path d="M255.487 327.088H208.085V329.283H255.487V327.088Z" fill="white"/>
<path d="M255.487 334.772H208.085V336.967H255.487V334.772Z" fill="white"/>
<path d="M255.487 342.456H208.085V344.651H255.487V342.456Z" fill="white"/>
<path d="M222.606 302.806H207.545C206.517 296.844 206.517 290.749 207.545 284.787H222.606C220.909 290.672 220.909 296.92 222.606 302.806Z" fill="white"/>
<path d="M256.581 286.474H228.869V288.304H256.581V286.474Z" fill="white"/>
<path d="M256.581 293.06H228.869V294.89H256.581V293.06Z" fill="white"/>
<path d="M256.581 299.646H228.869V301.476H256.581V299.646Z" fill="white"/>
<path d="M256.581 306.232H228.869V308.062H256.581V306.232Z" fill="white"/>
<path d="M244.699 239.449C244.696 242.587 243.565 245.618 241.513 247.986C239.461 250.353 236.627 251.899 233.531 252.338C230.434 252.777 227.284 252.08 224.659 250.375C222.034 248.67 220.11 246.072 219.241 243.058C218.372 240.043 218.616 236.816 219.929 233.968C221.241 231.12 223.534 228.843 226.385 227.555C229.237 226.267 232.455 226.055 235.45 226.958C238.445 227.861 241.014 229.818 242.686 232.469C244.001 234.558 244.699 236.978 244.699 239.449Z" fill="#E6E6E6"/>
<path d="M242.687 232.469L229.869 245.329C229.064 244.077 224.575 238.261 224.575 238.261C225.151 237.678 225.764 237.134 226.413 236.634L230.134 241.613L241.186 230.524C241.746 231.123 242.249 231.775 242.687 232.469Z" fill="white"/>
<path d="M144.199 397C179.602 397 208.301 394.024 208.301 390.353C208.301 386.683 179.602 383.707 144.199 383.707C108.797 383.707 80.0979 386.683 80.0979 390.353C80.0979 394.024 108.797 397 144.199 397Z" fill="#2F2E41"/>
<path d="M182.66 294.942H104.884V391.854H182.66V294.942Z" fill="#2F2E41"/>
<path d="M171.549 315.525H115.995V318.098H171.549V315.525Z" fill="white"/>
<path d="M171.549 324.53H115.995V327.103H171.549V324.53Z" fill="white"/>
<path d="M171.549 333.535H115.995V336.108H171.549V333.535Z" fill="white"/>
<path d="M171.549 342.541H115.995V345.114H171.549V342.541Z" fill="white"/>
<path d="M171.549 351.546H115.995V354.119H171.549V351.546Z" fill="white"/>
<path d="M158.302 360.98H129.242V371.271H158.302V360.98Z" fill="white"/>
<path d="M163.566 253.299C163.561 258.014 161.861 262.569 158.778 266.127C155.695 269.686 151.435 272.008 146.783 272.667C142.13 273.327 137.396 272.279 133.452 269.718C129.507 267.156 126.616 263.251 125.31 258.722C124.004 254.193 124.371 249.342 126.343 245.063C128.315 240.783 131.76 237.361 136.045 235.426C140.33 233.491 145.167 233.172 149.668 234.529C154.168 235.886 158.029 238.826 160.542 242.811C162.518 245.95 163.566 249.586 163.566 253.299Z" fill="#2F2E41"/>
<path d="M160.542 242.811L141.28 262.135C140.07 260.254 133.325 251.514 133.325 251.514C134.19 250.638 135.112 249.821 136.086 249.069L141.679 256.551L158.286 239.887C159.128 240.788 159.883 241.767 160.542 242.811Z" fill="white"/>
</g>
<path opacity="0.6" d="M462 390.645C459.641 412.005 335.813 410.212 336 390.643C338.359 369.284 462.187 371.077 462 390.645Z" fill="#E6E6E6"/>
<path d="M376.936 335.83L371.917 346.66L362.714 345.827L356.858 326.665L366.06 321.667L376.936 335.83Z" fill="#FFB8B8"/>
<path d="M408.53 360.774L408.728 368.321L394.505 369.155V359.99L408.53 360.774Z" fill="#FFB8B8"/>
<path d="M403.708 223.358L400.361 290.007L408.728 362.49L383.629 365.822L367.734 274.178L362.714 211.693L403.708 223.358Z" fill="#2F2E41"/>
<path d="M443.029 199.197C443.029 199.197 453.068 265.014 432.153 286.675C411.237 308.336 382.793 346.66 382.793 346.66L362.714 321.666L413.747 267.513L403.708 230.856L362.714 211.694L369.407 165.872L429.643 165.039L443.029 199.197Z" fill="#2F2E41"/>
<path d="M393.668 46.7347C403.833 46.7347 412.074 38.5286 412.074 28.4059C412.074 18.2832 403.833 10.0771 393.668 10.0771C383.503 10.0771 375.263 18.2832 375.263 28.4059C375.263 38.5286 383.503 46.7347 393.668 46.7347Z" fill="#FFB8B8"/>
<path d="M409.564 32.5715C409.564 32.5715 410.401 58.3984 414.584 61.7309C418.767 65.0634 399.525 79.2266 399.525 79.2266L386.976 59.2316V40.9028L409.564 32.5715Z" fill="#FFB8B8"/>
<path d="M401.198 67.5627L411.355 52.2894L417.093 60.0648L425.46 83.3924L418.767 174.203L379.446 175.036L374.427 70.8953L386.975 55.8993L401.198 67.5627Z" fill="#D0CDE1"/>
<path d="M358.531 73.3948L351.838 72.5616C351.838 72.5616 350.165 73.3948 349.328 79.2266C348.491 85.0585 338.452 136.712 338.452 136.712L351.838 200.03L366.897 180.035L357.694 145.044L366.897 110.052L358.531 73.3948Z" fill="#2F2E41"/>
<path d="M443.865 72.5619H448.884L461.434 140.044L449.722 192.532L438.009 173.37L441.355 152.542L439.682 134.213L433.826 123.382L443.865 72.5619Z" fill="#2F2E41"/>
<path d="M369.407 343.328C369.407 343.328 374.426 341.661 374.426 344.994C374.426 348.326 371.08 358.324 371.08 358.324C371.08 358.324 376.1 389.149 368.57 387.483C361.041 385.817 355.184 371.654 354.348 367.488C353.511 363.323 349.328 341.661 349.328 341.661C349.328 341.661 342.635 325.832 346.818 324.999C351.001 324.166 362.714 320.833 362.714 320.833C362.714 320.833 356.021 341.661 369.407 343.328Z" fill="#2F2E41"/>
<path d="M393.669 369.154C393.669 369.154 407.054 360.823 409.564 367.488C411.229 372.35 412.351 377.379 412.911 382.484C412.911 382.484 416.257 393.315 402.871 391.649C389.485 389.983 391.159 389.983 390.322 384.984C389.485 379.985 393.669 369.154 393.669 369.154Z" fill="#2F2E41"/>
<path d="M404.544 28.4059L401.198 27.5728C401.198 27.5728 398.688 13.4096 392.832 15.0759C386.976 16.7421 371.917 18.4084 371.917 11.7434C371.917 5.07831 386.139 -0.753538 394.505 0.0795924C402.871 0.912723 417.093 3.41211 416.257 15.909C415.42 28.4058 410.022 40.5627 410.022 40.5627L409.586 33.1533L404.544 28.4059Z" fill="#2F2E41"/>
<path d="M386.975 77.5604L401.198 67.5628L386.975 55.8994L382.038 61.8L386.975 77.5604Z" fill="#D0CDE1"/>
<path d="M413.747 76.7274L401.198 67.5627L411.237 52.5668L417.093 60.0647L413.747 76.7274Z" fill="#D0CDE1"/>
<path d="M352.675 72.5615L379.446 61.7309L385.721 57.1487L404.544 140.045L417.094 102.554L413.329 54.6493L448.048 72.5615L436.336 129.214L434.662 150.875L439.682 168.371C439.682 168.371 457.251 180.868 451.395 194.198C445.538 207.528 438.845 208.361 438.845 208.361C438.845 208.361 410.401 181.701 408.727 175.036C407.054 168.371 404.544 156.707 404.544 156.707C404.544 156.707 390.322 210.027 373.59 209.194C356.858 208.361 356.858 190.865 356.858 190.865L361.041 172.537L367.734 153.375L364.387 121.716L352.675 72.5615Z" fill="#2F2E41"/>
<defs>
<clipPath id="clip0">
<rect width="435" height="276" fill="white" transform="translate(0 121)"/>
</clipPath>
</defs>
</svg>
