<svg width="160" height="59" viewBox="0 0 160 59" fill="none" xmlns="http://www.w3.org/2000/svg">
<path d="M30.198 20.462C30.198 23.29 29.442 25.684 27.93 27.644C26.418 29.576 24.304 30.92 21.588 31.676L26.838 41H21.042L16.212 32.39H16.17H8.904L7.224 41H1.722L7.602 11.6H19.026C22.582 11.6 25.326 12.384 27.258 13.952C29.218 15.492 30.198 17.662 30.198 20.462ZM16.338 27.896C18.998 27.896 21.056 27.308 22.512 26.132C23.968 24.928 24.696 23.206 24.696 20.966C24.696 19.398 24.15 18.222 23.058 17.438C21.994 16.626 20.454 16.22 18.438 16.22H12.18L9.828 27.896H16.338ZM54.8805 41H49.5465L48.3285 35.792H36.8205L33.5025 41H27.8325L43.6245 16.976H48.8325L54.8805 41ZM47.5305 31.718L45.3045 21.806L39.1305 31.718H47.5305ZM85.2797 16.976L80.4917 41H76.1237L66.7157 25.544L63.6077 41H58.3577L63.1457 16.976H67.5557L76.9217 32.432L80.0297 16.976H85.2797ZM102.339 27.938L110.823 41H104.817L98.4329 31.214L94.3589 34.742L93.0989 41H87.8489L92.5949 16.976H97.8869L95.6609 28.106L108.513 16.976H115.023L102.339 27.938Z" fill="white"/>
<path fill-rule="evenodd" clip-rule="evenodd" d="M129.112 54.8835C141.5 57.1569 153.161 48.9076 155.157 36.4592C157.153 24.01 148.728 12.0748 136.341 9.80144C123.953 7.5281 112.292 15.7771 110.296 28.2263C108.3 40.6748 116.725 52.6102 129.112 54.8835Z" fill="white"/>
<path fill-rule="evenodd" clip-rule="evenodd" d="M132.302 31.7685C131.543 36.503 127.625 39.7351 123.551 38.9875C119.477 38.2398 116.79 33.7956 117.549 29.0611L118.731 21.6799L122.134 22.3044L120.951 29.6853C120.542 32.2367 121.99 34.6314 124.185 35.0343C126.38 35.4371 128.491 33.6954 128.901 31.1442L131.635 14.0896L135.683 10.6939L132.302 31.7685ZM135.376 39.8012C136.385 40.8714 137.618 41.6107 139.084 41.8798C143.148 42.6255 147.056 39.4019 147.813 34.6795C148.57 29.9575 145.89 25.5249 141.826 24.7792C137.763 24.0335 133.855 27.2571 133.098 31.979L129.648 53.494L133.725 49.9741L135.376 39.8012Z" fill="#00ADB5"/>
<path fill-rule="evenodd" clip-rule="evenodd" d="M139.678 37.8606C141.861 38.2612 143.96 36.5296 144.367 33.9931C144.773 31.4571 143.334 29.0761 141.151 28.6755C138.969 28.2751 136.87 30.0066 136.463 32.5426C136.056 35.0793 137.496 37.4601 139.678 37.8606Z" fill="white"/>
</svg>
